<svg xmlns="http://www.w3.org/2000/svg" width="14" height="14">
    <path
        d="M10.301.695h.082l.133.023.109.039.086.055.07.055.063.063.059.09.055.109.027.102.008.047v.152l-.02.109-.043.102-.055.094-.082.098-.113.117-.062.074-.09.117-.066.102-.07.117-.082.164-.066.176-.051.164-.035.164-.02.152-.004.094v.602l.559-.008.172-.012.199-.035.164-.039.176-.062.172-.074.137-.074.141-.098.109-.082.098-.082.102-.098.055-.055.098-.066.102-.047.09-.027.047-.008h.184l.102.02.109.051.07.039.07.055.066.07.063.086.047.102.027.098.016.137-.016.125-.035.113-.047.098-.055.074-.062.066-.113.117-.055.047-.098.086-.074.059-.133.098-.164.109-.133.082-.16.082-.109.055-.176.074-.211.074-.195.055-.258.055-.191.027-.238.02-.484.008h-.086l-.086-.008V6.57l-.008.195-.016.172-.031.227-.047.234-.062.211-.07.195L9.809 8l-.082.168-.086.16-.105.164-.09.121-.066.09-.055.066-.074.09-.098.102-.176.18-.078.063-.066.059-.109.082-.121.09-.117.074-.102.063-.152.082-.152.074-.211.09-.246.082-.273.07-.246.039-.184.02-.285.016H5.27v.711l-.004.164-.031.258-.023.164-.051.215-.066.23-.078.207-.086.195-.078.152-.109.184-.109.164-.094.129-.094.117-.062.066-.047.055-.105.105-.109.066-.102.043-.121.027h-.164l-.105-.023-.113-.047-.078-.047-.086-.074-.07-.082-.055-.098-.035-.082-.027-.121v-.152l.023-.102.031-.094.047-.09.063-.074.063-.07.074-.09.07-.09.074-.109.063-.102.082-.156.074-.184.047-.152.035-.148.027-.164.016-.172.004-.738-.012.008-.781.004-.184.023-.199.039-.164.047-.191.078-.137.066-.148.09-.098.07-.09.066-.094.082-.082.074-.09.063-.102.047-.094.027-.09.016h-.098l-.121-.023-.109-.039L1 10.734.93 10.68l-.062-.055-.066-.09-.055-.109-.035-.109-.016-.082v-.102l.023-.117.031-.102.055-.098.078-.098.047-.047.055-.047.07-.062.074-.062.121-.094.137-.094.129-.086.117-.066.199-.102.207-.09.188-.07.16-.047.199-.047.223-.039.172-.023.246-.012h.727l.004-1.492.016-.211L4 6.816l.047-.246.055-.207.082-.238.066-.164.164-.328.105-.164.074-.109.07-.094.086-.109.063-.078.082-.086.098-.105.047-.047.055-.047.086-.082.098-.078.102-.078.16-.109.141-.09.156-.09.16-.074.156-.07.164-.059.176-.055.25-.063.203-.035.156-.02.262-.016h1.449v-.621l.012-.191.027-.219.047-.246.055-.207.078-.223.086-.215.055-.113.086-.152.055-.094.059-.098.055-.082.098-.129.074-.098.09-.102.074-.082.043-.047.031-.035h.016l.008-.02.055-.047.078-.062.109-.055.09-.027zM8.813 4.414v.141h.008v-.141zm-.484.766l-1.039.008-.18.023-.199.039-.164.047-.168.07-.16.074-.113.066-.105.07-.113.09-.098.082-.109.102-.047.055-.062.07-.066.086-.086.117-.059.102-.07.125-.066.156-.055.148-.07.281-.02.156-.008.086V8.73l.547.004h.453l.477-.004.145-.016.172-.027.172-.039.164-.055.129-.055.109-.055.113-.062.145-.094.09-.07.09-.074.055-.051L8.266 8l.063-.078.066-.086.063-.09.074-.125.082-.156.055-.129.066-.207.043-.184.027-.191.008-.117V5.18zm0 0"
        fill="rgb(64.313728%,73.333335%,99.215686%)"/>
    <path
        d="M10.301.695h.082l.133.023.109.039.086.055.07.055.063.063.059.09.055.109.027.102.008.047v.152l-.02.109-.043.102-.055.094-.082.098-.113.117-.062.074-.09.117-.066.102-.07.117-.082.164-.066.176-.051.164-.035.164-.02.152-.004.094v.602l.559-.008.172-.012.199-.035.164-.039.176-.062.172-.074.137-.074.141-.098.109-.082.098-.082.102-.098.055-.055.098-.066.102-.047.09-.027.047-.008h.184l.102.02.109.051.07.039.07.055.066.07.063.086.047.102.027.098.016.137-.016.125-.035.113-.047.098-.055.074-.062.066-.113.117-.055.047-.098.086-.074.059-.133.098-.164.109-.133.082-.16.082-.109.055-.176.074-.211.074-.195.055-.258.055-.191.027-.238.02-.484.008h-.086l-.086-.008V6.57l-.008.195-.016.172-.031.227-.047.234-.062.211-.07.195L9.809 8l-.082.168-.086.16-.105.164-.09.121-.066.09-.055.066-.074.09-.098.102-.176.18-.078.063-.066.059-.109.082-.121.09-.117.074-.102.063-.152.082-.152.074-.211.09-.246.082-.273.07-.246.039-.184.02-.285.016H5.289l-.012-.008-.008-.574v-.727l1-.004.477-.008.145-.012.172-.031.172-.039.164-.055.129-.055.109-.055.113-.062.145-.094.09-.07.09-.074.055-.047.128-.13.063-.078.066-.086.063-.09.074-.125.082-.156.055-.129.07-.207.039-.184.027-.191.008-.117.008-1.434V3.254l.012-.191.027-.219.047-.246.055-.207.078-.223.086-.215.055-.113.086-.152.055-.094.059-.098.055-.082.098-.129.074-.098.09-.102.074-.082.043-.047.031-.035h.016l.008-.02.055-.047.078-.062.109-.055.09-.027zM3.07 8.734h.867l.008.016v1.293l-.781.004-.184.023-.199.039-.164.047-.191.078-.137.066-.148.09-.098.07-.09.066-.094.082-.082.074-.09.063-.102.047-.094.027-.09.016h-.098l-.121-.023-.109-.039L1 10.734.93 10.68l-.062-.055-.066-.09-.055-.109-.035-.109-.016-.082v-.102l.023-.117.031-.102.055-.098.078-.098.047-.047.055-.047.07-.062.074-.062.121-.094.137-.094.129-.086.117-.066.199-.102.207-.09.188-.07.16-.047.199-.047.223-.039.172-.023zm0 0"
        fill="rgb(52.941179%,53.333336%,96.078432%)"/>
    <path
        d="M12.551 3.008h.184l.102.02.109.051.07.039.07.055.066.07.063.086.047.102.027.098.016.137-.016.125-.035.113-.047.098-.055.074-.062.066-.113.117-.055.047-.098.086-.074.059-.133.098-.164.109-.133.082-.16.082-.109.055-.176.074-.211.074-.195.055-.258.055-.191.027-.238.02-.484.008h-.086l-.086-.008-.008-.004v-1.82h.008l.008.52.559-.008.172-.012.199-.035.164-.039.176-.062.172-.074.137-.074.141-.098.109-.082.098-.082.102-.098.055-.055.098-.066.102-.047.09-.027zm0 0"
        fill="rgb(64.313728%,73.333335%,99.215686%)"/>
    <path
        d="M6.227 5.852h.09l.082.02.07.043.066.063.254.25.047.055.383.383.047.055.355.355.051.055.367.371.055.074.027.055.012.047v.125l-.023.082-.051.074L8 8.012l-.09.043-.07.012h-.059l-.078-.012-.082-.043-.09-.082-.176-.18-.047-.055-.363-.359V7.32H6.93l-.047-.055-.281-.281v-.012l-.023-.012-.051-.055-.465-.469L6 6.363l-.047-.094-.012-.074.004-.086.031-.074.039-.066.074-.07.074-.031zm0 0"
        fill="rgb(64.313728%,73.333335%,98.823529%)"/>
</svg>
